<svg width="120" height="154" viewBox="0 0 120 154" fill="none" xmlns="http://www.w3.org/2000/svg">
<rect x="21.8967" y="137.162" width="76.853" height="16.3423" rx="8.17114" fill="white"/>
<path d="M52.1521 146.759L52.1521 115.077C52.1521 110.565 55.8104 106.906 60.3232 106.906V106.906C64.836 106.906 68.4944 110.565 68.4944 115.077V146.759H52.1521Z" fill="white"/>
<path fill-rule="evenodd" clip-rule="evenodd" d="M21.8967 62.3415C21.8967 56.4896 17.1528 51.7456 11.3008 51.7456V51.7456C5.4488 51.7456 0.704834 56.4896 0.704834 62.3416V71.8131C0.704834 104.74 27.3969 131.432 60.3232 131.432C93.2496 131.432 119.942 104.74 119.942 71.8131V62.3416C119.942 56.4896 115.198 51.7456 109.346 51.7456V51.7456C103.494 51.7456 98.7498 56.4896 98.7498 62.3416V73.0833C98.7498 94.3057 81.5456 111.51 60.3232 111.51C39.1009 111.51 21.8967 94.3057 21.8967 73.0833V62.3415Z" fill="white"/>
<rect x="31.4468" y="0.605957" width="57.753" height="99.4575" rx="28.8765" fill="white"/>
</svg>
