<svg width="156" height="157" viewBox="0 0 156 157" fill="none" xmlns="http://www.w3.org/2000/svg">
<ellipse cx="119.343" cy="120.603" rx="35.6893" ry="23.2607" fill="white"/>
<ellipse cx="36.392" cy="133.243" rx="35.6893" ry="23.2607" fill="white"/>
<path d="M52.8435 33.49C52.8435 28.1776 57.15 23.8711 62.4624 23.8711V23.8711C67.7748 23.8711 72.0813 28.1776 72.0813 33.49V133.243H52.8435V33.49Z" fill="white"/>
<path d="M52.8435 34.2704C52.8435 28.1905 57.0575 22.9226 62.989 21.5876L139.178 4.43951C147.306 2.61015 155.033 8.79105 155.033 17.1222V39.4523C155.033 45.5322 150.819 50.8 144.887 52.135L68.698 69.2831C60.5702 71.1125 52.8435 64.9316 52.8435 56.6004V34.2704Z" fill="white"/>
<path d="M135.795 20.8499C135.795 15.5375 140.101 11.231 145.414 11.231V11.231C150.726 11.231 155.033 15.5375 155.033 20.8499V120.603H135.795V20.8499Z" fill="white"/>
</svg>
